<svg xmlns="http://www.w3.org/2000/svg" viewBox="0 0 512 512" role="img" aria-labelledby="title desc">
  <title id="title">美食墙图标</title>
  <desc id="desc">碗筷和爱心元素的美食主题图标</desc>
  <defs>
    <linearGradient id="bg" x1="0" x2="1" y1="0" y2="1">
      <stop offset="0%" stop-color="#3d285f"/>
      <stop offset="100%" stop-color="#2f204c"/>
    </linearGradient>
    <linearGradient id="plate" x1="0" x2="1" y1="0" y2="1">
      <stop offset="0%" stop-color="#ffd5e8"/>
      <stop offset="100%" stop-color="#ffc0dd"/>
    </linearGradient>
    <linearGradient id="food" x1="0" x2="1" y1="0" y2="1">
      <stop offset="0%" stop-color="#ffd7a9"/>
      <stop offset="100%" stop-color="#ffb97b"/>
    </linearGradient>
  </defs>

  <rect width="512" height="512" rx="88" fill="url(#bg)"/>
  <circle cx="132" cy="118" r="14" fill="#ffb2dc" opacity="0.85"/>
  <circle cx="390" cy="106" r="11" fill="#ffd0e9" opacity="0.8"/>
  <circle cx="408" cy="146" r="7" fill="#ffe1f2" opacity="0.8"/>

  <path d="M256 180c-57 0-104 45-104 100s47 100 104 100 104-45 104-100-47-100-104-100z" fill="url(#plate)"/>
  <path d="M256 212c-39 0-70 30-70 68s31 68 70 68 70-30 70-68-31-68-70-68z" fill="#fff1f7"/>
  <path d="M196 286c24-40 96-40 120 0" stroke="url(#food)" stroke-width="18" stroke-linecap="round" fill="none"/>
  <path d="M214 320h84" stroke="#ff9bbf" stroke-width="12" stroke-linecap="round"/>

  <rect x="118" y="190" width="18" height="148" rx="9" fill="#ffc6df"/>
  <rect x="110" y="170" width="34" height="18" rx="8" fill="#ffd9ea"/>
  <rect x="376" y="178" width="14" height="164" rx="7" fill="#ffc6df"/>
  <path d="M390 178c22 0 40 18 40 40v22h-14v-22c0-14-12-26-26-26z" fill="#ffd9ea"/>

  <path d="M256 102c9-18 36-13 36 7 0 17-16 29-36 41-20-12-36-24-36-41 0-20 27-25 36-7z" fill="#ff9ac4"/>
</svg>
